<?xml version="1.0" encoding="utf-8"?>
<!-- Generator: Adobe Illustrator 17.1.0, SVG Export Plug-In . SVG Version: 6.00 Build 0)  -->
<!DOCTYPE svg PUBLIC "-//W3C//DTD SVG 1.1//EN" "http://www.w3.org/Graphics/SVG/1.1/DTD/svg11.dtd" [
	<!ENTITY st0 "fill:#FFFFFF;">
	<!ENTITY st1 "fill:#D3DC3F;">
	<!ENTITY st2 "fill:#434545;">
	<!ENTITY st3 "fill:#877CD6;">
	<!ENTITY st4 "fill:#FD764D;">
	<!ENTITY st5 "fill:#27CAAD;">
]>
<svg version="1.1" id="Layer_1" xmlns="http://www.w3.org/2000/svg" xmlns:xlink="http://www.w3.org/1999/xlink" x="0px" y="0px"
	 viewBox="0 0 160 32" style="enable-background:new 0 0 160 32;" xml:space="preserve">
<g>
	<g>
		<path style="&st0;" d="M10.1183,29.1224H8.434V4.2312H1.587V2.6511h15.3771v1.5801h-6.8459V29.1224z"/>
		<path style="&st0;" d="M41.6787,15.8865c0,7.4435-6.2823,13.5868-13.7253,13.5868c-7.4434,0-13.7279-6.1434-13.7279-13.5868
			c0-7.4427,6.2487-13.5866,13.7279-13.5866C35.3964,2.2998,41.6787,8.4438,41.6787,15.8865z M15.9109,15.8865
			c0,6.5308,5.4403,12.0072,12.0425,12.0072c6.5648,0,12.0417-5.5119,12.0417-12.0072c0-6.5294-5.4769-12.0067-12.0417-12.0067
			C21.3513,3.8797,15.9109,9.3571,15.9109,15.8865z"/>
		<path style="&st0;" d="M45.3623,27.5427h6.7414v1.5797h-8.4253V2.6511h1.6839V27.5427z"/>
		<path style="&st0;" d="M78.9258,15.8865c0,7.4435-6.2838,13.5868-13.7264,13.5868c-7.4434,0-13.729-6.1434-13.729-13.5868
			c0-7.4427,6.2491-13.5866,13.729-13.5866C72.642,2.2998,78.9258,8.4438,78.9258,15.8865z M53.1573,15.8865
			c0,6.5308,5.4403,12.0072,12.0421,12.0072c6.5648,0,12.0417-5.5119,12.0417-12.0072c0-6.5294-5.4769-12.0067-12.0417-12.0067
			C58.5976,3.8797,53.1573,9.3571,53.1573,15.8865z"/>
		<path style="&st0;" d="M104.8335,30L82.6094,6.3725v22.7499h-1.6866V2.2998l22.2245,23.4525V2.6511h1.6862V30z"/>
	</g>
	<rect x="130.2722" y="2" style="&st1;" width="28" height="28"/>
</g>
</svg>
