<?xml version="1.0" encoding="utf-8"?>
<!-- Generator: Adobe Illustrator 17.1.0, SVG Export Plug-In . SVG Version: 6.00 Build 0)  -->
<!DOCTYPE svg PUBLIC "-//W3C//DTD SVG 1.1//EN" "http://www.w3.org/Graphics/SVG/1.1/DTD/svg11.dtd" [
	<!ENTITY st0 "fill:#FFFFFF;">
	<!ENTITY st1 "fill:#D3DC3F;">
	<!ENTITY st2 "fill:#434545;">
	<!ENTITY st3 "fill:none;stroke:#434545;stroke-width:0.25;stroke-miterlimit:10;">
	<!ENTITY st4 "fill:#877CD6;">
	<!ENTITY st5 "fill:#FD764D;">
	<!ENTITY st6 "fill:#27CAAD;">
	<!ENTITY st7 "opacity:0.5;fill:#C1272D;">
	<!ENTITY st8 "fill:#F15A24;">
	<!ENTITY st9 "fill:url(#SVGID_1_);">
	<!ENTITY st10 "fill:url(#SVGID_2_);">
	<!ENTITY st11 "fill:url(#SVGID_3_);">
]>
<svg version="1.1" id="Layer_1" xmlns="http://www.w3.org/2000/svg" xmlns:xlink="http://www.w3.org/1999/xlink" x="0px" y="0px"
	 viewBox="0 0 348.466 115.1011" style="enable-background:new 0 0 348.466 115.1011;" xml:space="preserve">
<g>
	<path style="&st8;" d="M32.2161,72.3217h-1.8797V44.5428H22.695v-1.7634h17.1611v1.7634h-7.6401V72.3217z"/>
	<path style="&st8;" d="M67.438,57.5505c0,8.307-7.0111,15.1631-15.3176,15.1631c-8.3069,0-15.3205-6.8561-15.3205-15.1631
		c0-8.3062,6.9737-15.1629,15.3205-15.1629C60.4269,42.3876,67.438,49.2443,67.438,57.5505z M38.6808,57.5505
		c0,7.2884,6.0715,13.4002,13.4396,13.4002c7.3264,0,13.4388-6.1514,13.4388-13.4002c0-7.2869-6.1123-13.3997-13.4388-13.3997
		C44.7523,44.1508,38.6808,50.2636,38.6808,57.5505z"/>
	<path style="&st8;" d="M71.549,70.5587h7.5235v1.763h-9.4027V42.7794h1.8793V70.5587z"/>
	<path style="&st8;" d="M109.0063,57.5505c0,8.307-7.0128,15.1631-15.3189,15.1631c-8.3069,0-15.3218-6.8561-15.3218-15.1631
		c0-8.3062,6.9741-15.1629,15.3218-15.1629C101.9935,42.3876,109.0063,49.2443,109.0063,57.5505z M80.2482,57.5505
		c0,7.2884,6.0715,13.4002,13.4392,13.4002c7.3264,0,13.4388-6.1514,13.4388-13.4002c0-7.2869-6.1123-13.3997-13.4388-13.3997
		C86.3197,44.1508,80.2482,50.2636,80.2482,57.5505z"/>
	<path style="&st8;" d="M137.9197,73.0075l-24.8024-26.3686V72.028h-1.8822V42.0937l24.8029,26.1734V42.4857h1.8818V73.0075z"/>
</g>
<g>
	<g>
		<g>
			<linearGradient id="SVGID_1_" gradientUnits="userSpaceOnUse" x1="263.1207" y1="44.5268" x2="263.1207" y2="69.6676">
				<stop  offset="0" style="stop-color:#FFFFFF"/>
				<stop  offset="1" style="stop-color:#000000"/>
			</linearGradient>
			<path style="&st9;" d="M263.1208,43.8568c-7.3677,0-13.4391,6.1129-13.4391,13.3997c0,7.2885,6.0715,13.4002,13.4391,13.4002
				c7.3265,0,13.4388-6.1513,13.4388-13.4002C276.5596,49.9697,270.4473,43.8568,263.1208,43.8568z"/>
			<linearGradient id="SVGID_2_" gradientUnits="userSpaceOnUse" x1="221.5534" y1="44.5268" x2="221.5534" y2="69.6676">
				<stop  offset="0" style="stop-color:#FFFFFF"/>
				<stop  offset="1" style="stop-color:#000000"/>
			</linearGradient>
			<path style="&st10;" d="M221.5538,43.8568c-7.3681,0-13.4396,6.1129-13.4396,13.3997c0,7.2885,6.0715,13.4002,13.4396,13.4002
				c7.3264,0,13.4388-6.1513,13.4388-13.4002C234.9926,49.9697,228.8802,43.8568,221.5538,43.8568z"/>
			<linearGradient id="SVGID_3_" gradientUnits="userSpaceOnUse" x1="252.4197" y1="19" x2="252.4197" y2="94.0474">
				<stop  offset="0" style="stop-color:#FFFFFF"/>
				<stop  offset="1" style="stop-color:#000000"/>
			</linearGradient>
			<path style="&st11;" d="M168.9197,17v80h167V17H168.9197z M201.6495,72.028h-1.8797V44.2491h-7.6413v-1.7634h17.1611v1.7634
				h-7.6401V72.028z M221.5538,72.4196c-8.3069,0-15.3206-6.8561-15.3206-15.1631c0-8.3062,6.9737-15.1629,15.3206-15.1629
				c8.3065,0,15.3176,6.8568,15.3176,15.1629C236.8715,65.5635,229.8604,72.4196,221.5538,72.4196z M248.5059,72.028h-9.4027
				V42.4857h1.8793V70.265h7.5234V72.028z M263.1208,72.4196c-8.3069,0-15.3218-6.8561-15.3218-15.1631
				c0-8.3062,6.9741-15.1629,15.3218-15.1629c8.3061,0,15.3189,6.8568,15.3189,15.1629
				C278.4398,65.5635,271.4269,72.4196,263.1208,72.4196z M307.3531,73.0074l-24.8024-26.3687V72.028h-1.8822V42.0936
				l24.8029,26.1734V42.4857h1.8818V73.0074z"/>
		</g>
	</g>
</g>
<path style="&st7;" d="M251.2252,14.8005c-23.6102,0-42.7501,19.1399-42.7501,42.7501s19.1399,42.7501,42.7501,42.7501
	s42.7501-19.1399,42.7501-42.7501S274.8354,14.8005,251.2252,14.8005z M220.4751,57.5506c0-16.9556,13.7944-30.7501,30.7501-30.7501
	c6.3131,0,12.1848,1.9171,17.0726,5.1931l-42.6296,42.6296C222.3922,69.7353,220.4751,63.8637,220.4751,57.5506z M251.2252,88.3006
	c-6.3131,0-12.1848-1.9171-17.0726-5.1931l42.6296-42.6296c3.2759,4.8878,5.1931,10.7595,5.1931,17.0726
	C281.9752,74.5062,268.1808,88.3006,251.2252,88.3006z"/>
<path style="&st7;" d="M79.0724,14.8005c-23.6102,0-42.7501,19.1399-42.7501,42.7501s19.1399,42.7501,42.7501,42.7501
	s42.7501-19.1399,42.7501-42.7501S102.6826,14.8005,79.0724,14.8005z M48.3223,57.5506c0-16.9556,13.7945-30.7501,30.7501-30.7501
	c6.3131,0,12.1848,1.9171,17.0726,5.1931L53.5154,74.6232C50.2395,69.7353,48.3223,63.8637,48.3223,57.5506z M79.0724,88.3006
	c-6.3131,0-12.1848-1.9171-17.0726-5.1931l42.6296-42.6296c3.2759,4.8878,5.1931,10.7595,5.1931,17.0726
	C109.8225,74.5062,96.028,88.3006,79.0724,88.3006z"/>
</svg>
