<?xml version="1.0" encoding="utf-8"?>
<!-- Generator: Adobe Illustrator 17.1.0, SVG Export Plug-In . SVG Version: 6.00 Build 0)  -->
<!DOCTYPE svg PUBLIC "-//W3C//DTD SVG 1.1//EN" "http://www.w3.org/Graphics/SVG/1.1/DTD/svg11.dtd" [
	<!ENTITY st0 "fill:#FFFFFF;">
	<!ENTITY st1 "fill:#D3DC3F;">
	<!ENTITY st2 "fill:#434545;">
	<!ENTITY st3 "fill:none;stroke:#434545;stroke-width:0.25;stroke-miterlimit:10;">
	<!ENTITY st4 "fill:#877CD6;">
	<!ENTITY st5 "fill:#FD764D;">
	<!ENTITY st6 "fill:#27CAAD;">
	<!ENTITY st7 "opacity:0.5;fill:#C1272D;">
]>
<svg version="1.1" id="Layer_1" xmlns="http://www.w3.org/2000/svg" xmlns:xlink="http://www.w3.org/1999/xlink" x="0px" y="0px"
	 viewBox="0 0 150.1606 38.4081" style="enable-background:new 0 0 150.1606 38.4081;" xml:space="preserve">
<g>
	<path style="&st2;" d="M3.7381,24.0299H3.1116v-9.2596H0.5645v-0.5878h5.7204v0.5878H3.7381V24.0299z"/>
	<path style="&st2;" d="M15.4787,19.1061c0,2.769-2.337,5.0544-5.1059,5.0544c-2.769,0-5.1068-2.2854-5.1068-5.0544
		c0-2.7687,2.3245-5.0543,5.1068-5.0543C13.1417,14.0518,15.4787,16.3373,15.4787,19.1061z M5.893,19.1061
		c0,2.4295,2.0238,4.4667,4.4799,4.4667c2.4421,0,4.4796-2.0504,4.4796-4.4667c0-2.429-2.0374-4.4666-4.4796-4.4666
		C7.9168,14.6395,5.893,16.6771,5.893,19.1061z"/>
	<path style="&st2;" d="M16.8491,23.4422h2.5078v0.5877h-3.1342v-9.8474h0.6264V23.4422z"/>
	<path style="&st2;" d="M29.3348,19.1061c0,2.769-2.3376,5.0544-5.1063,5.0544c-2.769,0-5.1073-2.2854-5.1073-5.0544
		c0-2.7687,2.3247-5.0543,5.1073-5.0543C26.9972,14.0518,29.3348,16.3373,29.3348,19.1061z M19.7488,19.1061
		c0,2.4295,2.0238,4.4667,4.4797,4.4667c2.4421,0,4.4796-2.0504,4.4796-4.4667c0-2.429-2.0374-4.4666-4.4796-4.4666
		C21.7726,14.6395,19.7488,16.6771,19.7488,19.1061z"/>
	<path style="&st2;" d="M38.9726,24.3564l-8.2675-8.7895v8.463h-0.6274v-9.9781l8.2676,8.7244v-8.5938h0.6273V24.3564z"/>
</g>
<g>
	<path style="&st2;" d="M56.6743,24.0299h-0.7431v-9.2596h-3.0207v-0.5878h6.7841v0.5878h-3.0202V24.0299z"/>
	<path style="&st2;" d="M70.5981,19.1061c0,2.769-2.7716,5.0544-6.0553,5.0544c-3.2839,0-6.0564-2.2854-6.0564-5.0544
		c0-2.7687,2.7568-5.0543,6.0564-5.0543C67.8265,14.0518,70.5981,16.3373,70.5981,19.1061z M59.2299,19.1061
		c0,2.4295,2.4002,4.4667,5.3129,4.4667c2.8963,0,5.3126-2.0504,5.3126-4.4667c0-2.429-2.4163-4.4666-5.3126-4.4666
		C61.6301,14.6395,59.2299,16.6771,59.2299,19.1061z"/>
	<path style="&st2;" d="M72.2232,23.4422h2.9741v0.5877h-3.7171v-9.8474h0.7429V23.4422z"/>
	<path style="&st2;" d="M87.0307,19.1061c0,2.769-2.7723,5.0544-6.0558,5.0544c-3.2839,0-6.0569-2.2854-6.0569-5.0544
		c0-2.7687,2.757-5.0543,6.0569-5.0543C84.2584,14.0518,87.0307,16.3373,87.0307,19.1061z M75.6622,19.1061
		c0,2.4295,2.4002,4.4667,5.3127,4.4667c2.8963,0,5.3126-2.0504,5.3126-4.4667c0-2.429-2.4163-4.4666-5.3126-4.4666
		C78.0623,14.6395,75.6622,16.6771,75.6622,19.1061z"/>
	<path style="&st2;" d="M98.4606,24.3564l-9.8048-8.7895v8.463h-0.7441v-9.9781l9.805,8.7244v-8.5938h0.7439V24.3564z"/>
</g>
<g>
	<path style="&st2;" d="M113.4617,25.2507h-0.6266V13.6486h-2.5471v-0.7365h5.7204v0.7365h-2.5467V25.2507z"/>
	<path style="&st2;" d="M125.2023,19.0813c0,3.4695-2.337,6.333-5.1059,6.333c-2.769,0-5.1068-2.8635-5.1068-6.333
		c0-3.4692,2.3246-6.3329,5.1068-6.3329C122.8653,12.7483,125.2023,15.6121,125.2023,19.0813z M115.6166,19.0813
		c0,3.0441,2.0238,5.5967,4.4799,5.5967c2.4421,0,4.4796-2.5692,4.4796-5.5967c0-3.0434-2.0374-5.5965-4.4796-5.5965
		C117.6404,13.4847,115.6166,16.0378,115.6166,19.0813z"/>
	<path style="&st2;" d="M126.5726,24.5144h2.5078v0.7363h-3.1342V12.9121h0.6264V24.5144z"/>
	<path style="&st2;" d="M139.0584,19.0813c0,3.4695-2.3376,6.333-5.1063,6.333c-2.769,0-5.1073-2.8635-5.1073-6.333
		c0-3.4692,2.3247-6.3329,5.1073-6.3329C136.7208,12.7483,139.0584,15.6121,139.0584,19.0813z M129.4724,19.0813
		c0,3.0441,2.0238,5.5967,4.4797,5.5967c2.4421,0,4.4796-2.5692,4.4796-5.5967c0-3.0434-2.0374-5.5965-4.4796-5.5965
		C131.4962,13.4847,129.4724,16.0378,129.4724,19.0813z"/>
	<path style="&st2;" d="M148.6962,25.6598l-8.2675-11.0131v10.6041h-0.6274V12.7483l8.2676,10.9316V12.9121h0.6273V25.6598z"/>
</g>
<path style="&st7;" d="M75.6855,4.3871c-7.8701,0-14.25,6.3799-14.25,14.25s6.3799,14.25,14.25,14.25s14.25-6.3799,14.25-14.25
	S83.5556,4.3871,75.6855,4.3871z M65.4355,18.6371c0-5.6519,4.5981-10.25,10.25-10.25c2.1044,0,4.0616,0.639,5.6909,1.731
	L67.1666,24.328C66.0746,22.6987,65.4355,20.7415,65.4355,18.6371z M75.6855,28.8871c-2.1044,0-4.0616-0.639-5.6909-1.731
	l14.2098-14.2098c1.092,1.6293,1.731,3.5865,1.731,5.6909C85.9355,24.289,81.3374,28.8871,75.6855,28.8871z"/>
<path style="&st7;" d="M130.1855,4.3871c-7.8701,0-14.25,6.3799-14.25,14.25s6.3799,14.25,14.25,14.25s14.25-6.3799,14.25-14.25
	S138.0556,4.3871,130.1855,4.3871z M119.9355,18.6371c0-5.6519,4.5981-10.25,10.25-10.25c2.1044,0,4.0616,0.639,5.6909,1.731
	L121.6666,24.328C120.5746,22.6987,119.9355,20.7415,119.9355,18.6371z M130.1855,28.8871c-2.1044,0-4.0616-0.639-5.6909-1.731
	l14.2098-14.2098c1.092,1.6293,1.731,3.5865,1.731,5.6909C140.4355,24.289,135.8374,28.8871,130.1855,28.8871z"/>
</svg>
