<?xml version="1.0" encoding="utf-8"?>
<!-- Generator: Adobe Illustrator 17.1.0, SVG Export Plug-In . SVG Version: 6.00 Build 0)  -->
<!DOCTYPE svg PUBLIC "-//W3C//DTD SVG 1.1//EN" "http://www.w3.org/Graphics/SVG/1.1/DTD/svg11.dtd" [
	<!ENTITY st0 "fill:#FFFFFF;">
	<!ENTITY st1 "fill:#D3DC3F;">
	<!ENTITY st2 "fill:#434545;">
	<!ENTITY st3 "fill:none;stroke:#434545;stroke-width:0.25;stroke-miterlimit:10;">
	<!ENTITY st4 "fill:#877CD6;">
	<!ENTITY st5 "fill:#FD764D;">
	<!ENTITY st6 "fill:#27CAAD;">
	<!ENTITY st7 "opacity:0.5;fill:#C1272D;">
]>
<svg version="1.1" id="Layer_1" xmlns="http://www.w3.org/2000/svg" xmlns:xlink="http://www.w3.org/1999/xlink" x="0px" y="0px"
	 viewBox="0 0 348.466 115.1011" style="enable-background:new 0 0 348.466 115.1011;" xml:space="preserve">
<g>
	<path d="M32.2161,72.3217h-1.8797V44.5428H22.695v-1.7634h17.1611v1.7634h-7.6401V72.3217z"/>
	<path d="M67.438,57.5505c0,8.307-7.0111,15.1631-15.3176,15.1631c-8.3069,0-15.3205-6.8561-15.3205-15.1631
		c0-8.3062,6.9737-15.1629,15.3205-15.1629C60.4269,42.3876,67.438,49.2443,67.438,57.5505z M38.6808,57.5505
		c0,7.2884,6.0715,13.4002,13.4396,13.4002c7.3264,0,13.4388-6.1514,13.4388-13.4002c0-7.2869-6.1123-13.3997-13.4388-13.3997
		C44.7523,44.1508,38.6808,50.2636,38.6808,57.5505z"/>
	<path d="M71.549,70.5587h7.5235v1.763h-9.4027V42.7794h1.8793V70.5587z"/>
	<path d="M109.0063,57.5505c0,8.307-7.0128,15.1631-15.3189,15.1631c-8.3069,0-15.3218-6.8561-15.3218-15.1631
		c0-8.3062,6.9741-15.1629,15.3218-15.1629C101.9935,42.3876,109.0063,49.2443,109.0063,57.5505z M80.2482,57.5505
		c0,7.2884,6.0715,13.4002,13.4392,13.4002c7.3264,0,13.4388-6.1514,13.4388-13.4002c0-7.2869-6.1123-13.3997-13.4388-13.3997
		C86.3197,44.1508,80.2482,50.2636,80.2482,57.5505z"/>
	<path d="M137.9197,73.0075l-24.8024-26.3686V72.028h-1.8822V42.0937l24.8029,26.1734V42.4857h1.8818V73.0075z"/>
</g>
<g>
	<g>
		<g>
			<path d="M263.1208,43.8568c-7.3677,0-13.4391,6.1129-13.4391,13.3997c0,7.2885,6.0715,13.4002,13.4391,13.4002
				c7.3265,0,13.4388-6.1513,13.4388-13.4002C276.5596,49.9697,270.4473,43.8568,263.1208,43.8568z"/>
			<path d="M221.5538,43.8568c-7.3681,0-13.4396,6.1129-13.4396,13.3997c0,7.2885,6.0715,13.4002,13.4396,13.4002
				c7.3264,0,13.4388-6.1513,13.4388-13.4002C234.9926,49.9697,228.8802,43.8568,221.5538,43.8568z"/>
			<path d="M168.9197,17v80h167V17H168.9197z M201.6495,72.028h-1.8797V44.2491h-7.6413v-1.7634h17.1611v1.7634h-7.6401V72.028z
				 M221.5538,72.4196c-8.3069,0-15.3206-6.8561-15.3206-15.1631c0-8.3062,6.9737-15.1629,15.3206-15.1629
				c8.3065,0,15.3176,6.8568,15.3176,15.1629C236.8715,65.5635,229.8604,72.4196,221.5538,72.4196z M248.5059,72.028h-9.4027
				V42.4857h1.8793V70.265h7.5234V72.028z M263.1208,72.4196c-8.3069,0-15.3218-6.8561-15.3218-15.1631
				c0-8.3062,6.9741-15.1629,15.3218-15.1629c8.3061,0,15.3189,6.8568,15.3189,15.1629
				C278.4398,65.5635,271.4269,72.4196,263.1208,72.4196z M307.3531,73.0074l-24.8024-26.3687V72.028h-1.8822V42.0936
				l24.8029,26.1734V42.4857h1.8818V73.0074z"/>
		</g>
	</g>
</g>
</svg>
