<?xml version="1.0" encoding="utf-8"?>
<!-- Generator: Adobe Illustrator 17.1.0, SVG Export Plug-In . SVG Version: 6.00 Build 0)  -->
<!DOCTYPE svg PUBLIC "-//W3C//DTD SVG 1.1//EN" "http://www.w3.org/Graphics/SVG/1.1/DTD/svg11.dtd" [
	<!ENTITY st0 "fill:#FFFFFF;">
	<!ENTITY st1 "fill:#D3DC3F;">
	<!ENTITY st2 "fill:#434545;">
	<!ENTITY st3 "fill:none;stroke:#434545;stroke-width:0.25;stroke-miterlimit:10;">
	<!ENTITY st4 "fill:#877CD6;">
	<!ENTITY st5 "fill:#FD764D;">
	<!ENTITY st6 "fill:#27CAAD;">
	<!ENTITY st7 "opacity:0.5;fill:#C1272D;">
	<!ENTITY st8 "opacity:0.52;">
	<!ENTITY st9 "fill:#29ABE2;">
]>
<svg version="1.1" id="Layer_1" xmlns="http://www.w3.org/2000/svg" xmlns:xlink="http://www.w3.org/1999/xlink" x="0px" y="0px"
	 viewBox="0 0 153.5469 67.8646" style="enable-background:new 0 0 153.5469 67.8646;" xml:space="preserve">
<g>
	<path style="&st2;" d="M28.6821,48.7034h-1.8797V20.9245h-7.6413v-1.7634h17.1611v1.7634h-7.6401V48.7034z"/>
	<path style="&st2;" d="M63.9041,33.9322c0,8.307-7.0111,15.1631-15.3176,15.1631c-8.3069,0-15.3205-6.8561-15.3205-15.1631
		c0-8.3062,6.9737-15.1629,15.3205-15.1629C56.8929,18.7693,63.9041,25.626,63.9041,33.9322z M35.1468,33.9322
		c0,7.2884,6.0715,13.4002,13.4396,13.4002c7.3264,0,13.4388-6.1514,13.4388-13.4002c0-7.2869-6.1123-13.3997-13.4388-13.3997
		C41.2183,20.5325,35.1468,26.6453,35.1468,33.9322z"/>
	<path style="&st2;" d="M68.015,46.9405h7.5235v1.763h-9.4027V19.1611h1.8793V46.9405z"/>
	<path style="&st2;" d="M105.4723,33.9322c0,8.307-7.0128,15.1631-15.3189,15.1631c-8.3069,0-15.3218-6.8561-15.3218-15.1631
		c0-8.3062,6.9741-15.1629,15.3218-15.1629C98.4595,18.7693,105.4723,25.626,105.4723,33.9322z M76.7143,33.9322
		c0,7.2884,6.0715,13.4002,13.4392,13.4002c7.3264,0,13.4388-6.1514,13.4388-13.4002c0-7.2869-6.1123-13.3997-13.4388-13.3997
		C82.7858,20.5325,76.7143,26.6453,76.7143,33.9322z"/>
	<path style="&st2;" d="M134.3857,49.3892l-24.8024-26.3686v25.3892h-1.8822V18.4754l24.8029,26.1734V18.8674h1.8818V49.3892z"/>
</g>
<g style="&st8;">
	<path style="&st9;" d="M11.521,48.7034H9.6413V20.9245H2v-1.7634h17.1611v1.7634H11.521V48.7034z"/>
</g>
<g style="&st8;">
	<path style="&st9;" d="M143.9068,48.7034h-1.8797V20.9245h-7.6413v-1.7634h17.1611v1.7634h-7.6401V48.7034z"/>
</g>
<g style="&st8;">
	<path style="&st9;" d="M56.3313,56.3435v1.8797H28.5524v7.6413H26.789V48.7034h1.7634v7.6401H56.3313z"/>
</g>
<g style="&st8;">
	<path style="&st9;" d="M56.3313,9.6401v1.8797H28.5524v7.6413H26.789V2h1.7634v7.6401H56.3313z"/>
</g>
<g>
	<path style="&st9;" d="M151.5469,0h-2v2h2V0L151.5469,0z M147.5469,0h-2v2h2V0L147.5469,0z M143.5469,0h-2v2h2V0L143.5469,0z
		 M139.5469,0h-2v2h2V0L139.5469,0z M135.5469,0h-2v2h2V0L135.5469,0z M131.5469,0h-2v2h2V0L131.5469,0z M127.5469,0h-2v2h2V0
		L127.5469,0z M123.5469,0h-2v2h2V0L123.5469,0z M119.5469,0h-2v2h2V0L119.5469,0z M115.5469,0h-2v2h2V0L115.5469,0z M111.5469,0h-2
		v2h2V0L111.5469,0z M107.5469,0h-2v2h2V0L107.5469,0z M103.5469,0h-2v2h2V0L103.5469,0z M99.5469,0h-2v2h2V0L99.5469,0z M95.5469,0
		h-2v2h2V0L95.5469,0z M91.5469,0h-2v2h2V0L91.5469,0z M87.5469,0h-2v2h2V0L87.5469,0z M83.5469,0h-2v2h2V0L83.5469,0z M79.5469,0
		h-2v2h2V0L79.5469,0z M75.5469,0h-2v2h2V0L75.5469,0z M71.5469,0h-2v2h2V0L71.5469,0z M67.5469,0h-2v2h2V0L67.5469,0z M63.5469,0
		h-2v2h2V0L63.5469,0z M59.5469,0h-2v2h2V0L59.5469,0z M55.5469,0h-2v2h2V0L55.5469,0z M51.5469,0h-2v2h2V0L51.5469,0z M47.5469,0
		h-2v2h2V0L47.5469,0z M43.5469,0h-2v2h2V0L43.5469,0z M39.5469,0h-2v2h2V0L39.5469,0z M35.5469,0h-2v2h2V0L35.5469,0z M31.5469,0
		h-2v2h2V0L31.5469,0z M27.5469,0h-2v2h2V0L27.5469,0z M23.5469,0h-2v2h2V0L23.5469,0z M19.5469,0h-2v2h2V0L19.5469,0z M15.5469,0
		h-2v2h2V0L15.5469,0z M11.5469,0h-2v2h2V0L11.5469,0z M7.5469,0h-2v2h2V0L7.5469,0z M3.3857,0.3817H2H0.3857V2v0.3817h2l0,0l0,0
		l0,0h1V0.3817L3.3857,0.3817z M2,4.4531H0v2h2V4.4531L2,4.4531z M2,8.4531H0v2h2V8.4531L2,8.4531z M2,12.4531H0v2h2V12.4531
		L2,12.4531z M2,16.4531H0v2h2V16.4531L2,16.4531z M2,20.4531H0v2h2V20.4531L2,20.4531z M2,24.4531H0v2h2V24.4531L2,24.4531z
		 M2,28.4531H0v2h2V28.4531L2,28.4531z M2,32.4531H0v2h2V32.4531L2,32.4531z M2,36.4531H0v2h2V36.4531L2,36.4531z M2,40.4531H0v2h2
		V40.4531L2,40.4531z M2,44.4531H0v2h2V44.4531L2,44.4531z M2,48.4531H0v2h2V48.4531L2,48.4531z M2,52.4531H0v2h2V52.4531L2,52.4531
		z M2,56.4531H0v2h2V56.4531L2,56.4531z M2,60.4531H0v2h2V60.4531L2,60.4531z M2.3857,64.3817h-2v1.4828v1.5172H2h0.3857v-2l0,0
		V64.3817L2.3857,64.3817z M6.5886,65.8646h-2v2h2V65.8646L6.5886,65.8646z M10.5886,65.8646h-2v2h2V65.8646L10.5886,65.8646z
		 M14.5886,65.8646h-2v2h2V65.8646L14.5886,65.8646z M18.5886,65.8646h-2v2h2V65.8646L18.5886,65.8646z M22.5886,65.8646h-2v2h2
		V65.8646L22.5886,65.8646z M26.5886,65.8646h-2v2h2V65.8646L26.5886,65.8646z M30.5886,65.8646h-2v2h2V65.8646L30.5886,65.8646z
		 M34.5886,65.8646h-2v2h2V65.8646L34.5886,65.8646z M38.5886,65.8646h-2v2h2V65.8646L38.5886,65.8646z M42.5886,65.8646h-2v2h2
		V65.8646L42.5886,65.8646z M46.5886,65.8646h-2v2h2V65.8646L46.5886,65.8646z M50.5886,65.8646h-2v2h2V65.8646L50.5886,65.8646z
		 M54.5886,65.8646h-2v2h2V65.8646L54.5886,65.8646z M58.5886,65.8646h-2v2h2V65.8646L58.5886,65.8646z M62.5886,65.8646h-2v2h2
		V65.8646L62.5886,65.8646z M66.5886,65.8646h-2v2h2V65.8646L66.5886,65.8646z M70.5886,65.8646h-2v2h2V65.8646L70.5886,65.8646z
		 M74.5886,65.8646h-2v2h2V65.8646L74.5886,65.8646z M78.5886,65.8646h-2v2h2V65.8646L78.5886,65.8646z M82.5886,65.8646h-2v2h2
		V65.8646L82.5886,65.8646z M86.5886,65.8646h-2v2h2V65.8646L86.5886,65.8646z M90.5886,65.8646h-2v2h2V65.8646L90.5886,65.8646z
		 M94.5886,65.8646h-2v2h2V65.8646L94.5886,65.8646z M98.5886,65.8646h-2v2h2V65.8646L98.5886,65.8646z M102.5886,65.8646h-2v2h2
		V65.8646L102.5886,65.8646z M106.5886,65.8646h-2v2h2V65.8646L106.5886,65.8646z M110.5886,65.8646h-2v2h2V65.8646
		L110.5886,65.8646z M114.5886,65.8646h-2v2h2V65.8646L114.5886,65.8646z M118.5886,65.8646h-2v2h2V65.8646L118.5886,65.8646z
		 M122.5886,65.8646h-2v2h2V65.8646L122.5886,65.8646z M126.5886,65.8646h-2v2h2V65.8646L126.5886,65.8646z M130.5886,65.8646h-2v2
		h2V65.8646L130.5886,65.8646z M134.5886,65.8646h-2v2h2V65.8646L134.5886,65.8646z M138.5886,65.8646h-2v2h2V65.8646
		L138.5886,65.8646z M142.5886,65.8646h-2v2h2V65.8646L142.5886,65.8646z M146.5886,65.8646h-2v2h2V65.8646L146.5886,65.8646z
		 M150.5886,65.8646h-2v2h2V65.8646L150.5886,65.8646z M153.5469,62.8228h-2v2h2V62.8228L153.5469,62.8228z M153.5469,58.8228h-2v2
		h2V58.8228L153.5469,58.8228z M153.5469,54.8228h-2v2h2V54.8228L153.5469,54.8228z M153.5469,50.8228h-2v2h2V50.8228
		L153.5469,50.8228z M153.5469,46.8228h-2v2h2V46.8228L153.5469,46.8228z M153.5469,42.8228h-2v2h2V42.8228L153.5469,42.8228z
		 M153.5469,38.8228h-2v2h2V38.8228L153.5469,38.8228z M153.5469,34.8228h-2v2h2V34.8228L153.5469,34.8228z M153.5469,30.8228h-2v2
		h2V30.8228L153.5469,30.8228z M153.5469,26.8228h-2v2h2V26.8228L153.5469,26.8228z M153.5469,22.8228h-2v2h2V22.8228
		L153.5469,22.8228z M153.5469,18.8228h-2v2h2V18.8228L153.5469,18.8228z M153.5469,14.8228h-2v2h2V14.8228L153.5469,14.8228z
		 M153.5469,10.8228h-2v2h2V10.8228L153.5469,10.8228z M153.5469,6.8228h-2v2h2V6.8228L153.5469,6.8228z M153.5469,2.8228h-2v2h2
		V2.8228L153.5469,2.8228z"/>
</g>
</svg>
