<?xml version="1.0" encoding="utf-8"?>
<!-- Generator: Adobe Illustrator 17.1.0, SVG Export Plug-In . SVG Version: 6.00 Build 0)  -->
<!DOCTYPE svg PUBLIC "-//W3C//DTD SVG 1.1//EN" "http://www.w3.org/Graphics/SVG/1.1/DTD/svg11.dtd" [
	<!ENTITY st0 "fill:#FFFFFF;">
	<!ENTITY st1 "fill:#D3DC3F;">
	<!ENTITY st2 "fill:#434545;">
	<!ENTITY st3 "fill:none;stroke:#434545;stroke-width:0.25;stroke-miterlimit:10;">
	<!ENTITY st4 "fill:#877CD6;">
	<!ENTITY st5 "fill:#FD764D;">
	<!ENTITY st6 "fill:#27CAAD;">
	<!ENTITY st7 "opacity:0.5;fill:#C1272D;">
]>
<svg version="1.1" id="Layer_1" xmlns="http://www.w3.org/2000/svg" xmlns:xlink="http://www.w3.org/1999/xlink" x="0px" y="0px"
	 viewBox="0 0 150.1606 38.4081" style="enable-background:new 0 0 150.1606 38.4081;" xml:space="preserve">
<g>
	<path style="&st2;" d="M23.1842,35.2345v0.6266h-9.2596v2.5471h-0.5878v-5.7204h0.5878v2.5467H23.1842z"/>
	<path style="&st2;" d="M18.2604,23.4938c2.769,0,5.0544,2.337,5.0544,5.1059c0,2.769-2.2854,5.1068-5.0544,5.1068
		c-2.7687,0-5.0543-2.3245-5.0543-5.1068C13.2061,25.8309,15.4917,23.4938,18.2604,23.4938z M18.2604,33.0796
		c2.4295,0,4.4667-2.0238,4.4667-4.4798c0-2.4421-2.0504-4.4796-4.4667-4.4796c-2.429,0-4.4666,2.0374-4.4666,4.4796
		C13.7938,31.0557,15.8314,33.0796,18.2604,33.0796z"/>
	<path style="&st2;" d="M22.5965,22.1235v-2.5078h0.5877V22.75h-9.8474v-0.6264H22.5965z"/>
	<path style="&st2;" d="M18.2604,9.6378c2.769,0,5.0544,2.3376,5.0544,5.1063c0,2.769-2.2854,5.1073-5.0544,5.1073
		c-2.7687,0-5.0543-2.3247-5.0543-5.1073C13.2061,11.9754,15.4917,9.6378,18.2604,9.6378z M18.2604,19.2238
		c2.4295,0,4.4667-2.0238,4.4667-4.4797c0-2.4421-2.0504-4.4796-4.4667-4.4796c-2.429,0-4.4666,2.0374-4.4666,4.4796
		C13.7938,17.2,15.8314,19.2238,18.2604,19.2238z"/>
	<path style="&st2;" d="M23.5107,0l-8.7895,8.2675h8.463v0.6274h-9.9781l8.7244-8.2676h-8.5938V0L23.5107,0z"/>
</g>
<g>
	<path style="&st2;" d="M67.7627,33.9516l-0.4431,0.4431l-6.5475-6.5475l-1.8011,1.8011l-0.4156-0.4156l4.0449-4.0449l0.4156,0.4156
		l-1.8008,1.8008L67.7627,33.9516z"/>
	<path style="&st2;" d="M72.5829,22.1681c1.958,1.958,1.9214,5.2265-0.0364,7.1844c-1.958,1.958-5.2271,1.9951-7.1851,0.0371
		c-1.9578-1.9578-1.9302-5.2176,0.0372-7.185C67.3565,20.2467,70.6251,20.2103,72.5829,22.1681z M65.8048,28.9462
		c1.7179,1.7179,4.5895,1.7274,6.3262-0.0093c1.7269-1.7269,1.7177-4.6174,0.0091-6.326c-1.7175-1.7175-4.599-1.7176-6.3259,0.0092
		C64.0775,24.3568,64.0873,27.2287,65.8048,28.9462z"/>
	<path style="&st2;" d="M76.618,24.2653l1.7733-1.7733l0.4155,0.4155l-2.2162,2.2162l-6.9632-6.9632l0.443-0.443L76.618,24.2653z"/>
	<path style="&st2;" d="M82.3806,12.3704c1.958,1.958,1.921,5.2269-0.0367,7.1847c-1.958,1.958-5.2274,1.9954-7.1853,0.0374
		c-1.9578-1.9578-1.9301-5.2177,0.0375-7.1853C77.1538,10.4494,80.4229,10.4126,82.3806,12.3704z M75.6023,19.1487
		c1.7179,1.7179,4.5895,1.7274,6.3261-0.0092c1.7269-1.7269,1.7177-4.6174,0.0091-6.326c-1.7175-1.7175-4.599-1.7176-6.3259,0.0092
		C73.875,14.5593,73.8848,17.4312,75.6023,19.1487z"/>
	<path style="&st2;" d="M92.9081,9.268L80.847,8.8988l5.9843,5.9843l-0.4436,0.4436L79.332,8.2711l12.0152,0.323l-6.0767-6.0767
		l0.4435-0.4435L92.9081,9.268z"/>
</g>
<g>
	<path style="&st3;" d="M114.1089,24.0299h-0.6266v-9.2596h-2.5471v-0.5878h5.7204v0.5878h-2.5467V24.0299z"/>
	<path style="&st3;" d="M125.8496,19.1061c0,2.769-2.337,5.0544-5.1059,5.0544c-2.769,0-5.1068-2.2854-5.1068-5.0544
		c0-2.7687,2.3245-5.0543,5.1068-5.0543C123.5125,14.0518,125.8496,16.3373,125.8496,19.1061z M116.2638,19.1061
		c0,2.4295,2.0238,4.4667,4.4799,4.4667c2.4421,0,4.4796-2.0504,4.4796-4.4667c0-2.429-2.0374-4.4666-4.4796-4.4666
		C118.2877,14.6395,116.2638,16.6771,116.2638,19.1061z"/>
	<path style="&st3;" d="M127.2199,23.4422h2.5078v0.5877h-3.1342v-9.8474h0.6264V23.4422z"/>
	<path style="&st3;" d="M139.7056,19.1061c0,2.769-2.3376,5.0544-5.1063,5.0544c-2.769,0-5.1073-2.2854-5.1073-5.0544
		c0-2.7687,2.3247-5.0543,5.1073-5.0543C137.368,14.0518,139.7056,16.3373,139.7056,19.1061z M130.1196,19.1061
		c0,2.4295,2.0238,4.4667,4.4797,4.4667c2.4421,0,4.4796-2.0504,4.4796-4.4667c0-2.429-2.0374-4.4666-4.4796-4.4666
		C132.1435,14.6395,130.1196,16.6771,130.1196,19.1061z"/>
	<path style="&st3;" d="M149.3434,24.3564l-8.2675-8.7895v8.463h-0.6274v-9.9781l8.2676,8.7244v-8.5938h0.6273V24.3564z"/>
</g>
<path style="&st7;" d="M19.1855,4.3871c-7.8701,0-14.25,6.3799-14.25,14.25s6.3799,14.25,14.25,14.25s14.25-6.3799,14.25-14.25
	S27.0556,4.3871,19.1855,4.3871z M8.9355,18.6371c0-5.6519,4.5981-10.25,10.25-10.25c2.1044,0,4.0616,0.639,5.6909,1.731
	L10.6666,24.328C9.5746,22.6987,8.9355,20.7415,8.9355,18.6371z M19.1855,28.8871c-2.1044,0-4.0616-0.639-5.6909-1.731
	l14.2098-14.2098c1.092,1.6293,1.731,3.5865,1.731,5.6909C29.4355,24.289,24.8374,28.8871,19.1855,28.8871z"/>
<path style="&st7;" d="M75.6855,4.3871c-7.8701,0-14.25,6.3799-14.25,14.25s6.3799,14.25,14.25,14.25s14.25-6.3799,14.25-14.25
	S83.5556,4.3871,75.6855,4.3871z M65.4355,18.6371c0-5.6519,4.5981-10.25,10.25-10.25c2.1044,0,4.0616,0.639,5.6909,1.731
	L67.1666,24.328C66.0746,22.6987,65.4355,20.7415,65.4355,18.6371z M75.6855,28.8871c-2.1044,0-4.0616-0.639-5.6909-1.731
	l14.2098-14.2098c1.092,1.6293,1.731,3.5865,1.731,5.6909C85.9355,24.289,81.3374,28.8871,75.6855,28.8871z"/>
<path style="&st7;" d="M130.1855,4.3871c-7.8701,0-14.25,6.3799-14.25,14.25s6.3799,14.25,14.25,14.25s14.25-6.3799,14.25-14.25
	S138.0556,4.3871,130.1855,4.3871z M119.9355,18.6371c0-5.6519,4.5981-10.25,10.25-10.25c2.1044,0,4.0616,0.639,5.6909,1.731
	L121.6666,24.328C120.5746,22.6987,119.9355,20.7415,119.9355,18.6371z M130.1855,28.8871c-2.1044,0-4.0616-0.639-5.6909-1.731
	l14.2098-14.2098c1.092,1.6293,1.731,3.5865,1.731,5.6909C140.4355,24.289,135.8374,28.8871,130.1855,28.8871z"/>
</svg>
