<?xml version="1.0" encoding="utf-8"?>
<!-- Generator: Adobe Illustrator 17.1.0, SVG Export Plug-In . SVG Version: 6.00 Build 0)  -->
<!DOCTYPE svg PUBLIC "-//W3C//DTD SVG 1.1//EN" "http://www.w3.org/Graphics/SVG/1.1/DTD/svg11.dtd" [
	<!ENTITY st0 "fill:#FFFFFF;">
	<!ENTITY st1 "fill:#D3DC3F;">
	<!ENTITY st2 "fill:#434545;">
	<!ENTITY st3 "fill:#877CD6;">
	<!ENTITY st4 "fill:#FD764D;">
	<!ENTITY st5 "fill:#27CAAD;">
]>
<svg version="1.1" id="Layer_1" xmlns="http://www.w3.org/2000/svg" xmlns:xlink="http://www.w3.org/1999/xlink" x="0px" y="0px"
	 viewBox="0 0 103.2465 27.7002" style="enable-background:new 0 0 103.2465 27.7002;" xml:space="preserve">
<g>
	<path style="&st2;" d="M8.5313,26.8226H6.847V1.9314H0V0.3513h15.3771v1.5801H8.5313V26.8226z"/>
	<path style="&st2;" d="M40.0917,13.5866c0,7.4435-6.2823,13.5868-13.7253,13.5868c-7.4434,0-13.7279-6.1434-13.7279-13.5868
		C12.6385,6.1439,18.8872,0,26.3664,0C33.8094,0,40.0917,6.1439,40.0917,13.5866z M14.3239,13.5866
		c0,6.5308,5.4403,12.0072,12.0425,12.0072c6.5648,0,12.0417-5.5119,12.0417-12.0072c0-6.5294-5.4769-12.0067-12.0417-12.0067
		C19.7643,1.5799,14.3239,7.0573,14.3239,13.5866z"/>
	<path style="&st2;" d="M43.7753,25.2428h6.7413v1.5797h-8.4253V0.3513h1.6839V25.2428z"/>
	<path style="&st2;" d="M77.3387,13.5866c0,7.4435-6.2838,13.5868-13.7264,13.5868c-7.4434,0-13.729-6.1434-13.729-13.5868
		C49.8833,6.1439,56.1324,0,63.6123,0C71.0549,0,77.3387,6.1439,77.3387,13.5866z M51.5702,13.5866
		c0,6.5308,5.4403,12.0072,12.0421,12.0072c6.5648,0,12.0417-5.5119,12.0417-12.0072c0-6.5294-5.4769-12.0067-12.0417-12.0067
		C57.0106,1.5799,51.5702,7.0573,51.5702,13.5866z"/>
	<path style="&st2;" d="M103.2465,27.7002L81.0224,4.0727v22.7499h-1.6866V0l22.2245,23.4525V0.3513h1.6862V27.7002z"/>
</g>
</svg>
